<?xml version="1.0" standalone="no"?>
<!DOCTYPE svg PUBLIC "-//W3C//DTD SVG 20010904//EN"
 "http://www.w3.org/TR/2001/REC-SVG-20010904/DTD/svg10.dtd">
<svg version="1.0" xmlns="http://www.w3.org/2000/svg"
 width="700.000000pt" height="700.000000pt" viewBox="0 0 700.000000 700.000000"
 preserveAspectRatio="xMidYMid meet">
<metadata>
Created by potrace 1.14, written by Peter Selinger 2001-2017
</metadata>
<g transform="translate(0.000000,700.000000) scale(0.100000,-0.100000)"
fill="#000000" stroke="none">
<path d="M3240 6994 c-477 -42 -905 -161 -1309 -364 -669 -335 -1226 -891
-1558 -1555 -251 -500 -373 -1017 -373 -1575 0 -937 363 -1813 1025 -2475 556
-556 1245 -893 2045 -1002 167 -22 654 -25 820 -5 810 100 1521 443 2085 1007
565 565 903 1266 1007 2085 17 140 17 640 0 780 -103 817 -441 1518 -1002
2080 -556 557 -1245 897 -2040 1005 -110 16 -593 28 -700 19z m545 -104 c991
-84 1896 -598 2480 -1408 845 -1175 847 -2783 3 -3959 -506 -705 -1255 -1191
-2095 -1357 -209 -42 -346 -57 -579 -63 -572 -15 -1080 94 -1589 342 -1028
501 -1726 1476 -1880 2625 -22 166 -30 515 -16 695 81 1007 593 1913 1414
2503 480 345 1084 569 1672 621 142 12 449 13 590 1z"/>
<path d="M3450 6394 c-82 -11 -234 -45 -249 -57 -43 -33 -55 -93 -26 -133 27
-40 64 -47 147 -30 175 36 340 42 523 20 45 -6 54 -3 82 20 40 34 50 74 28
116 -28 54 -66 62 -280 65 -104 2 -206 1 -225 -1z"/>
<path d="M4415 6171 c-36 -15 -60 -51 -60 -91 0 -48 10 -59 119 -133 113 -77
257 -219 319 -313 49 -76 59 -84 112 -84 52 0 90 38 90 88 0 33 -12 57 -59
127 -93 137 -253 285 -410 379 -62 37 -77 41 -111 27z"/>
<path d="M2613 6054 c-59 -45 -155 -135 -205 -192 -50 -57 -51 -91 -3 -139 54
-54 86 -44 189 54 45 43 108 101 139 128 52 46 57 55 57 91 0 31 -6 46 -28 67
-41 40 -88 37 -149 -9z"/>
<path d="M1563 5387 c-348 -117 -642 -220 -653 -229 -44 -38 -24 -53 168 -123
l160 -58 52 -191 c29 -105 57 -199 62 -208 5 -10 19 -18 32 -18 27 0 55 20
144 102 34 32 67 58 71 58 5 0 78 -56 162 -125 163 -132 196 -147 232 -107 9
10 76 243 154 536 128 486 136 520 122 545 -10 18 -24 27 -44 28 -17 1 -308
-91 -662 -210z m467 5 c0 -5 -137 -122 -304 -260 -264 -219 -304 -256 -309
-284 -3 -18 -11 -70 -18 -116 -6 -46 -13 -82 -15 -80 -7 7 -94 332 -92 340 5
14 699 407 721 407 9 1 17 -3 17 -7z"/>
<path d="M4971 5085 c-23 -20 -31 -37 -36 -73 -28 -231 -70 -420 -124 -562
-27 -71 -26 -92 4 -128 52 -62 131 -46 165 31 54 123 121 393 140 571 13 113
5 148 -41 171 -41 22 -73 18 -108 -10z"/>
<path d="M4554 3875 c-12 -8 -40 -46 -63 -84 -23 -39 -104 -168 -181 -287
-157 -243 -163 -262 -111 -315 33 -33 82 -39 118 -14 18 13 227 328 342 518
51 84 54 125 12 168 -33 33 -82 39 -117 14z"/>
<path d="M3869 2815 c-62 -33 -329 -558 -329 -645 0 -16 12 -42 26 -59 21 -26
33 -31 68 -31 56 0 76 22 120 131 44 110 122 266 197 395 75 128 77 174 9 209
-36 18 -57 18 -91 0z"/>
<path d="M3445 1626 c-31 -31 -38 -83 -34 -267 l4 -151 33 -29 c51 -46 121
-34 149 26 5 11 9 105 8 209 l-2 189 -27 24 c-37 32 -98 32 -131 -1z"/>
<path d="M3467 839 c-86 -13 -175 -87 -206 -172 -18 -46 -13 -157 8 -203 44
-96 138 -155 247 -155 285 0 370 377 116 510 -35 19 -111 28 -165 20z"/>
</g>
</svg>
