<?xml version="1.0" encoding="UTF-8" standalone="no"?>
<!-- Created with Inkscape (http://www.inkscape.org/) -->

<svg
   width="183.64302mm"
   height="183.64304mm"
   viewBox="0 0 183.64302 183.64304"
   version="1.1"
   id="svg1"
   xml:space="preserve"
   xmlns:xlink="http://www.w3.org/1999/xlink"
   xmlns="http://www.w3.org/2000/svg"
   xmlns:svg="http://www.w3.org/2000/svg"><defs
     id="defs1"><linearGradient
       id="linearGradient48"><stop
         style="stop-color:#40b3e0;stop-opacity:1;"
         offset="0"
         id="stop48" /><stop
         style="stop-color:#ec4cff;stop-opacity:1;"
         offset="1"
         id="stop49" /></linearGradient><linearGradient
       id="swatch40"><stop
         style="stop-color:#000000;stop-opacity:1;"
         offset="0"
         id="stop40" /></linearGradient><linearGradient
       xlink:href="#linearGradient48"
       id="linearGradient49"
       x1="103.28504"
       y1="21.298803"
       x2="102.84007"
       y2="145.95778"
       gradientUnits="userSpaceOnUse" /></defs><g
     id="layer3"
     style="mix-blend-mode:normal"
     transform="translate(-11.122719,-20.825502)"><circle
       style="display:inline;mix-blend-mode:normal;fill:url(#linearGradient49);stroke:none;stroke-width:0.264999;stroke-linecap:round;stroke-linejoin:miter;stroke-miterlimit:4;stroke-dasharray:none;stroke-dashoffset:5.44819;stroke-opacity:1;paint-order:normal"
       id="path45"
       cx="102.94423"
       cy="112.64701"
       r="91.82151" /></g><g
     id="layer1"
     style="opacity:1;mix-blend-mode:lighten"
     transform="translate(-11.122719,-20.825502)"><circle
       style="display:inline;mix-blend-mode:normal;fill:#ffffff;fill-opacity:1;stroke:none;stroke-width:5;stroke-linecap:round;stroke-linejoin:miter;stroke-miterlimit:4;stroke-dasharray:none;stroke-dashoffset:5.44819;stroke-opacity:1;paint-order:normal"
       id="circle47"
       cx="102.94423"
       cy="112.64701"
       r="91.82151" /><circle
       style="display:inline;opacity:1;mix-blend-mode:normal;fill:none;fill-opacity:1;stroke:#000000;stroke-width:2.53504;stroke-linecap:round;stroke-linejoin:miter;stroke-miterlimit:4;stroke-dasharray:none;stroke-dashoffset:5.44819;stroke-opacity:1;paint-order:normal"
       id="circle1"
       cx="102.94423"
       cy="112.64701"
       r="90.553581" /><g
       id="g44"
       style="display:inline;mix-blend-mode:normal"><g
         id="g47"
         style="display:inline"><path
           id="path34"
           style="display:inline;fill:#000000;fill-opacity:0;stroke:#040404;stroke-width:5;stroke-linecap:round;stroke-linejoin:miter;stroke-miterlimit:4;stroke-dasharray:none;stroke-dashoffset:0;stroke-opacity:1;paint-order:normal"
           d="m 134.36289,49.823325 c -2.04617,-1.860439 -4.22785,-3.477727 -6.50956,-4.853553 m -15.20788,-5.465005 c -5.37567,-0.801195 -10.86858,-0.540089 -16.144018,0.767406 M 81.880518,47.15509 c -2.140916,1.586056 -4.159352,3.402998 -6.019823,5.449139 M 103.24938,171.8121 c -0.16579,-2.90385 -0.16293,-5.63797 -0.0103,-8.22999 m 3.24275,-16.08872 c 1.87977,-5.24871 4.43256,-10.0011 7.35485,-14.70011 m 9.12389,-13.70966 c 1.48585,-2.21742 2.98733,-4.50754 4.47798,-6.90896 1.56996,-2.32982 3.09634,-4.75043 4.5418,-7.23344 m 7.38905,-15.382002 c 2.08273,-5.600527 3.45489,-11.227443 3.75146,-16.603188 m -3.43416,-16.499093 c -1.33905,-2.38241 -3.09539,-4.607491 -5.32377,-6.633612" /><circle
           style="display:inline;fill:#000000;fill-opacity:1;stroke:#000000;stroke-width:1.7;stroke-linecap:round;stroke-linejoin:miter;stroke-miterlimit:4;stroke-dasharray:none;stroke-dashoffset:4;stroke-opacity:1;paint-order:normal"
           id="path35"
           cx="103.35288"
           cy="189.38779"
           r="6.2124686" /></g><g
         style="display:inline;fill:#000000;stroke-width:1.00157;stroke-dasharray:none"
         id="g37"
         transform="matrix(1.0027095,-0.11427893,0.11427893,1.0027095,5.358966,93.972816)"><path
           d="m 66.354955,-28.593262 -33.055543,6.950285 c -2.222921,0.421052 -2.440591,1.756486 -0.785797,2.417898 l 7.417577,3.755018 1.559821,9.6547861 c 0.226074,1.0160717 -0.02689,1.3665288 0.926986,1.5220085 0.763105,0.1243845 1.206849,-0.1949793 1.650592,-0.5143392 0.221872,-0.15968 2.218718,-1.5968036 4.437439,-3.1936075 l 7.048628,7.22008266 c 1.401826,1.01187075 2.417898,0.7857972 3.079312,-0.86899636 l 9.415278,-24.1209922 c 0.914382,-2.005251 -0.234477,-3.367578 -1.694293,-2.822143 z m -4.939172,5.070273 -17.088337,11.119636 -1.598489,6.2023255 -1.559821,-9.6547885 19.354959,-8.204205 c 0.856392,-0.447945 1.557304,0.05799 0.891688,0.537032 z"
           id="path1"
           style="display:inline;fill:#000000;fill-opacity:1;stroke-width:1.93597;stroke-dasharray:none" /><path
           style="fill:#ffffff;fill-opacity:1;stroke:#ec4cff;stroke-width:0.0559904;stroke-linecap:round;stroke-linejoin:miter;stroke-miterlimit:4;stroke-dasharray:none;stroke-dashoffset:5.44819;stroke-opacity:1;paint-order:normal"
           d="m 314.7076,177.72751 c -0.37854,-2.34434 -0.71929,-4.45452 -0.75722,-4.68929 l -0.069,-0.42685 9.84403,-4.17177 c 8.73385,-3.7013 9.87614,-4.1717 10.12884,-4.17112 0.35716,8.1e-4 0.52058,0.14143 0.43783,0.37673 -0.0415,0.11786 -1.85356,1.32124 -8.65342,5.74651 -4.73054,3.07858 -8.62076,5.63325 -8.64492,5.67704 -0.0242,0.0438 -0.37624,1.37516 -0.78239,2.9586 -0.40616,1.58343 -0.75581,2.89778 -0.777,2.92078 -0.0212,0.023 -0.34826,-1.87629 -0.72679,-4.22063 z"
           id="path44"
           transform="translate(-272.68131,-188.44711)" /></g></g></g><style
     type="text/css"
     id="style1">
	.st0{fill:none;}
</style></svg>
